<svg xmlns="http://www.w3.org/2000/svg" viewBox="0 0 1440 790" preserveAspectRatio="xMidYMid" width="1440" height="790" style="shape-rendering: auto; display: block; background: rgb(163, 186, 223);" xmlns:xlink="http://www.w3.org/1999/xlink"><g style="transform:translate(720.0px,395.0px) scale(1,-1) translate(-720.0px,-395.0px)"><defs>
<linearGradient id="lg-bk-jg6mq6wfbyj" x1="0" x2="0" y1="0" y2="1">
  <stop stop-color="#dffff9" stop-opacity="0" offset="0"></stop>
  <stop stop-color="#dffff9" stop-opacity="1" offset="0.8250000000000001"></stop>
</linearGradient>
<linearGradient id="lg-oersv4ab58c" x1="0" x2="0" y1="0" y2="1">
  <stop stop-color="rgba(95, 202, 255, 0.394)" offset="0"></stop>
  <stop stop-color="#0075fc" offset="0.37"></stop>
  <stop stop-color="#003067" offset="1"></stop>
</linearGradient>
</defs>
<rect x="0" y="0" width="1440" height="790" fill="url(#lg-bk-jg6mq6wfbyj)"></rect><g>
<path d="M0 521.4
C720 521.4 720 599.294 1440 599.294
C2160 599.294 2160 521.4 2880 521.4
C3600 521.4 3600 599.294 4320 599.294
C5040 599.294 5040 521.4 5760 521.4
L5760 790 L0 790 Z" fill="url(#lg-oersv4ab58c)" opacity="0.4">
  <animateTransform attributeName="transform" type="translate" dur="10s" repeatCount="indefinite" keyTimes="0;1" begin="0s" values="-2880 0;0 0"></animateTransform>
</path>
<animateTransform attributeName="transform" type="translate" dur="10s" repeatCount="indefinite" calcMode="spline" keySplines="0.3 0 0.7 1;0.3 0 0.7 1" keyTimes="0;0.5;1" begin="0s" values="0 0;0 10; 0"></animateTransform>
</g><g>
<path d="M0 521.4
C720 521.4 720 599.294 1440 599.294
C2160 599.294 2160 521.4 2880 521.4
C3600 521.4 3600 599.294 4320 599.294
C5040 599.294 5040 521.4 5760 521.4
L5760 790 L0 790 Z" fill="url(#lg-oersv4ab58c)" opacity="0.4">
  <animateTransform attributeName="transform" type="translate" dur="10s" repeatCount="indefinite" keyTimes="0;1" begin="-0.46666666666666673s" values="-2880 0;0 0"></animateTransform>
</path>
<animateTransform attributeName="transform" type="translate" dur="10s" repeatCount="indefinite" calcMode="spline" keySplines="0.3 0 0.7 1;0.3 0 0.7 1" keyTimes="0;0.5;1" begin="-3.3333333333333335s" values="0 0;0 10; 0"></animateTransform>
</g><g>
<path d="M0 521.4
C720 521.4 720 599.294 1440 599.294
C2160 599.294 2160 521.4 2880 521.4
C3600 521.4 3600 599.294 4320 599.294
C5040 599.294 5040 521.4 5760 521.4
L5760 790 L0 790 Z" fill="url(#lg-oersv4ab58c)" opacity="0.4">
  <animateTransform attributeName="transform" type="translate" dur="10s" repeatCount="indefinite" keyTimes="0;1" begin="-0.9333333333333335s" values="-2880 0;0 0"></animateTransform>
</path>
<animateTransform attributeName="transform" type="translate" dur="10s" repeatCount="indefinite" calcMode="spline" keySplines="0.3 0 0.7 1;0.3 0 0.7 1" keyTimes="0;0.5;1" begin="-6.666666666666667s" values="0 0;0 10; 0"></animateTransform>
</g><g></g></g><style type="text/css"></style><!-- [ldio] generated by https://loading.io --></svg>